<?xml version="1.0" encoding="UTF-8"?>
<!DOCTYPE svg PUBLIC "-//W3C//DTD SVG 1.1//EN" "http://www.w3.org/Graphics/SVG/1.1/DTD/svg11.dtd">
<!-- Creator: CorelDRAW -->
<svg xmlns="http://www.w3.org/2000/svg" xml:space="preserve" width="2550px" height="2100px" version="1.1" style="shape-rendering:geometricPrecision; text-rendering:geometricPrecision; image-rendering:optimizeQuality; fill-rule:evenodd; clip-rule:evenodd"
viewBox="0 0 2550 2100"
 xmlns:xlink="http://www.w3.org/1999/xlink"
 xmlns:xodm="http://www.corel.com/coreldraw/odm/2003">
 <defs>
  <style type="text/css">
   <![CDATA[
    .fil1 {fill:none}
    .fil0 {fill:#0098DB}
   ]]>
  </style>
 </defs>
 <g id="Layer_x0020_1">
  <metadata id="CorelCorpID_0Corel-Layer"/>
  <g id="_105553320658272">
   <rect class="fil0" x="1178.65" y="211.55" width="536.72" height="1025.36"/>
   <rect class="fil0" x="2327.82" y="1295.08" width="169.53" height="108.36"/>
   <rect class="fil0" x="2327.82" y="1882.5" width="169.53" height="108.36"/>
   <path class="fil0" d="M949.44 1243.89l-137.82 168.35c-7.05,8.6 -11.32,8.6 -18.41,-0.04l-134.85 -164.45c-15.25,-18.59 -10.82,-42.74 -10.79,-63.56l-1.65 -445.05 306.4 -1.99 1.94 345.94c-2.48,33.95 7.33,145.96 -4.82,160.8zm-302.08 -785.24l304.91 1.78c3.57,24.05 1.44,53.23 3.98,80.37 1.99,21.35 2.36,62.16 -0.88,82.26 -24.73,17.45 -264.1,-2.62 -306.44,7.64l-1.57 -172.05zm-62.56 848.99l193.14 235.52c8.99,10.96 40.06,10.89 49.04,-0.08l192.93 -235.66c42.37,-51.76 22.84,-223.03 22.93,-302.97 0.09,-114.23 8.51,-230.26 0.17,-344.05 -10.3,-139.35 41.29,-308.28 -50.97,-308.77l-312.58 0.45c-21.92,0.01 -39.3,0.16 -61.26,-0.16 -21.18,-0.23 -46.42,3.64 -55.16,35.38 -6.01,21.84 0.36,117.18 -3.47,153.65 -4.34,41.25 -2.38,112.21 1.44,153.36 4.01,43.04 0.67,107.13 0.68,153.31 0.02,53.52 -3.05,99.6 -3.03,153.31 0.02,53.42 3.12,99.6 3.1,153.36 0.05,44.49 -10.14,112.89 23.04,153.35z"/>
   <rect class="fil0" x="1844.1" y="109.1" width="536.72" height="1127.8"/>
   <g>
    <path class="fil0" d="M2366.58 1295.08l0 695.78 -1971.03 0c-188.68,0 -342.94,-156.46 -342.94,-347.83l0 -0.12c0,-191.37 154.26,-347.83 342.94,-347.83l116.62 0 286.88 329.69 286.87 -329.69 1280.66 0z"/>
    <path class="fil1" d="M2366.58 1990.86l-1971.03 0c-188.68,0 -342.94,-156.46 -342.94,-347.83l0 -0.12c0,-191.37 154.26,-347.83 342.94,-347.83l116.62 0m573.75 0l1280.66 0"/>
   </g>
  </g>
 </g>
</svg>
