<svg width="16" height="15" viewBox="0 0 16 15" fill="#8402c7" xmlns="http://www.w3.org/2000/svg">
<path fill-rule="evenodd" clip-rule="evenodd" d="M0.533203 0.780729C0.533203 0.794364 0.983392 1.39713 1.37664 1.91002C1.56788 2.15942 1.9793 2.70128 2.46358 3.34155C3.0985 4.18098 3.20096 4.30776 3.22981 4.28981C3.24378 4.28115 3.24854 4.29148 3.24041 4.31283C3.23227 4.33414 3.28986 4.43196 3.36834 4.5302C3.44683 4.62841 3.69669 4.95506 3.92356 5.25606C4.42883 5.9264 4.45283 5.95807 4.80595 6.4205C4.96221 6.62516 5.26626 7.02705 5.48159 7.31357C5.69692 7.6001 5.94344 7.92309 6.02941 8.03133C6.17623 8.21614 6.2168 8.30759 6.16232 8.33069C6.14187 8.33935 4.51622 10.2021 2.07483 13.0143C1.66261 13.4892 1.29029 13.9179 1.24743 13.9671C1.20455 14.0162 1.09129 14.1469 0.995704 14.2573L0.821926 14.4581L1.95752 14.4577L3.09311 14.4572L3.53703 13.9472C3.78118 13.6666 4.08083 13.3209 4.2029 13.1789C4.32498 13.0368 4.76262 12.5331 5.17543 12.0595C5.58824 11.5859 6.0477 11.0582 6.19644 10.8869C6.34518 10.7156 6.5089 10.528 6.56024 10.4701C6.61159 10.4123 6.78998 10.2071 6.95669 10.0142C7.30028 9.61654 7.24949 9.62439 7.47894 9.93325C7.54582 10.0233 7.72845 10.2644 7.8848 10.4691C8.04111 10.6738 8.3254 11.0474 8.51652 11.2994C9.08121 12.0441 9.16339 12.1523 9.7472 12.9206C10.0539 13.3242 10.3168 13.6471 10.3313 13.638C10.3459 13.6289 10.3512 13.639 10.343 13.6604C10.3349 13.6817 10.3783 13.7612 10.4396 13.837C10.5008 13.9128 10.6354 14.0835 10.7387 14.2164L10.9265 14.4581H13.2327H15.5388L15.3962 14.2721C15.1625 13.9674 13.9138 12.3052 13.6583 11.9588C13.5281 11.7822 13.3559 11.5522 13.2757 11.4478C13.1955 11.3434 12.9882 11.0704 12.815 10.8412C12.5155 10.4447 12.3053 10.1649 10.8468 8.22153C10.5027 7.76309 10.1356 7.27615 10.0309 7.13942C9.92627 7.00272 9.80136 6.83527 9.75335 6.76731C9.70538 6.69938 9.65543 6.6393 9.64237 6.63386C9.62935 6.62838 9.61867 6.61016 9.61867 6.59331C9.61867 6.56601 9.79778 6.33498 9.91461 6.21158C9.93903 6.18577 10.0323 6.07926 10.1218 5.97486C10.3834 5.66973 10.455 5.58718 10.7035 5.30416C10.8329 5.15681 10.978 4.99016 11.026 4.93387C11.0739 4.87754 11.1798 4.75635 11.2612 4.66458C11.3425 4.5728 11.4822 4.41309 11.5715 4.3097C11.6609 4.20631 11.7607 4.09233 11.7935 4.05639C11.8262 4.02049 11.9196 3.91225 12.001 3.81586C12.1766 3.60786 12.9801 2.68267 13.1527 2.48977C13.315 2.30827 13.4798 2.11917 13.6583 1.90939C13.8955 1.63067 14.4687 0.973186 14.5627 0.872061L14.6489 0.779271L13.5193 0.771472L12.3896 0.763672L12.2989 0.862386C12.249 0.916655 12.1351 1.04558 12.0458 1.14882C11.9564 1.25209 11.8566 1.36664 11.8238 1.40341C11.7911 1.4402 11.6963 1.54922 11.6133 1.64573C11.4618 1.82187 11.1014 2.23879 10.9356 2.42975C10.8311 2.55014 10.6272 2.78168 10.3552 3.08872C10.2476 3.21021 10.0811 3.40249 9.98526 3.51597C9.88943 3.62945 9.71044 3.83709 9.58748 3.97739C9.46454 4.11769 9.32471 4.27844 9.27674 4.33462C9.19284 4.43291 9.13104 4.50379 8.74836 4.94077C8.65221 5.05059 8.5631 5.14043 8.55037 5.14043C8.53762 5.14043 8.30412 4.84239 8.0315 4.47807C6.95515 3.03981 6.61857 2.59206 6.55879 2.51885C6.52452 2.47688 6.46983 2.40543 6.43728 2.3601C6.37457 2.27272 6.16314 1.99048 6.06705 1.86584C6.0355 1.82491 5.83906 1.56368 5.63048 1.28534L5.25128 0.779271L2.89226 0.772037C1.59478 0.768048 0.533203 0.771977 0.533203 0.780729ZM4.63726 2.14609C4.66694 2.18559 4.74448 2.2944 4.80959 2.38787C4.8747 2.48134 4.9419 2.57294 4.95895 2.5914C5.00038 2.63626 6.22381 4.26037 7.19309 5.5572C7.39501 5.82735 7.5713 6.06179 7.58486 6.07816C7.59841 6.09453 7.74973 6.29547 7.92108 6.52469C8.09246 6.75392 8.30814 7.0402 8.40039 7.16089C8.49261 7.2816 8.61468 7.44426 8.67165 7.52234C8.72862 7.60046 8.89598 7.82322 9.04356 8.01737C9.33021 8.39446 10.2993 9.68301 11.1536 10.8232C11.4406 11.2062 11.7287 11.5889 11.7939 11.6735C11.9166 11.8332 12.0022 11.9475 12.2064 12.2248C12.2725 12.3144 12.3424 12.4082 12.3619 12.4332C12.4921 12.6005 12.8075 13.0209 12.8258 13.0516C12.8432 13.0809 12.7074 13.0888 12.1846 13.0888H11.5213L11.3973 12.9109C11.329 12.8131 11.2569 12.716 11.2369 12.6951C11.217 12.6742 11.0811 12.4973 10.935 12.302C10.7888 12.1067 10.6117 11.8722 10.5412 11.781C10.2279 11.3752 10.0712 11.169 9.98839 11.0541C9.93947 10.9861 9.76543 10.7564 9.60165 10.5435C9.43791 10.3307 9.19828 10.0162 9.06916 9.8446C8.94004 9.67304 8.81862 9.51228 8.79926 9.48737C8.75561 9.4311 8.44256 9.02273 8.23543 8.7518C8.15011 8.64026 7.9336 8.35474 7.75423 8.11734C7.4497 7.71423 7.33668 7.56575 6.97681 7.09593C6.7983 6.86287 6.84565 6.92521 6.45246 6.40562C6.10579 5.94753 5.99253 5.79875 5.6369 5.33402C5.38573 5.00582 5.22604 4.79517 4.82261 4.26004C4.65075 4.03204 4.45318 3.7718 4.38361 3.68175C4.31403 3.5917 4.18589 3.42425 4.09885 3.30964C4.01178 3.19503 3.88429 3.02758 3.81551 2.93753C3.74674 2.84747 3.58414 2.63314 3.45417 2.46122C3.32422 2.2893 3.2048 2.13192 3.18885 2.11143C3.16583 2.08187 3.30646 2.07422 3.87159 2.07422H4.58334L4.63726 2.14609Z" fill="#8402c7"/>
</svg>
